<?xml version="1.0" standalone="no"?><!DOCTYPE svg PUBLIC "-//W3C//DTD SVG 1.1//EN"
  "http://www.w3.org/Graphics/SVG/1.1/DTD/svg11.dtd">
<svg t="1622710687687" class="icon" viewBox="0 0 1024 1024" version="1.1" xmlns="http://www.w3.org/2000/svg" p-id="2597"
     xmlns:xlink="http://www.w3.org/1999/xlink" width="200" height="200">
  <defs>
    <style type="text/css"></style>
  </defs>
  <path
    d="M923.733333 57.6H605.866667c-10.666667 0-21.333333 4.266667-29.866667 12.8L70.4 576c-17.066667 17.066667-17.066667 42.666667 0 59.733333l315.733333 315.733334c8.533333 8.533333 19.2 12.8 29.866667 12.8s21.333333-4.266667 29.866667-12.8L953.6 448c8.533333-8.533333 12.8-19.2 12.8-29.866667V100.266667c0-23.466667-19.2-42.666667-42.666667-42.666667z m-42.666666 343.466667L418.133333 861.866667l-256-256L622.933333 142.933333h256v258.133334z"
    p-id="2598"></path>
  <path
    d="M704 377.6c14.933333 0 29.866667-6.4 40.533333-17.066667 23.466667-23.466667 23.466667-59.733333 0-83.2s-59.733333-23.466667-83.2 0-23.466667 59.733333 0 83.2c12.8 12.8 27.733333 17.066667 42.666667 17.066667z"
    p-id="2599"></path>
</svg>